<svg width="512" height="512" viewBox="0 0 512 512" fill="none" xmlns="http://www.w3.org/2000/svg">
    <!-- 背景圆 -->
    <circle cx="256" cy="256" r="256" fill="#007AFF"/>
    
    <!-- 海贼帽 -->
    <path d="M128 220C128 180 176 150 256 150C336 150 384 180 384 220C384 260 336 280 256 280C176 280 128 260 128 220Z" fill="#FFD700"/>
    <path d="M176 220C176 200 208 185 256 185C304 185 336 200 336 220C336 240 304 250 256 250C208 250 176 240 176 220Z" fill="#FF4444"/>
    
    <!-- 骷髅标志 -->
    <circle cx="226" cy="310" r="20" fill="white"/>
    <circle cx="286" cy="310" r="20" fill="white"/>
    <path d="M216 360C216 340 256 340 256 360C256 380 296 380 296 360" stroke="white" stroke-width="12" stroke-linecap="round"/>
    
    <!-- 交叉骨头 -->
    <rect x="206" y="390" width="100" height="20" rx="10" fill="white" transform="rotate(-45 256 400)"/>
    <rect x="206" y="390" width="100" height="20" rx="10" fill="white" transform="rotate(45 256 400)"/>
</svg> 